<svg width="86" height="86" viewBox="0 0 86 86" fill="none" xmlns="http://www.w3.org/2000/svg">
<path d="M76.6712 23.1195C76.4102 23.7733 76.2399 24.4765 76.1771 25.2148C75.86 28.9443 74.3102 35.3234 70.6862 41.3149C67.1301 47.1941 61.7895 52.3858 53.888 54.7384C50.0445 55.8828 47.8527 59.9389 48.9925 63.7979C50.1323 67.6569 54.1721 69.8576 58.0156 68.7132C67.0881 66.0119 73.8419 60.8478 78.747 54.9831V75.5968H80.8193C83.6805 75.5968 86 77.9256 86 80.7984C86 83.6712 83.6805 86 80.8193 86H5.18072C2.31949 86 0 83.6712 0 80.7984C0 77.9256 2.31949 75.5968 5.18072 75.5968H7.25301V35.0242C7.25272 34.9664 7.25301 34.9086 7.25301 34.8508C7.25301 15.6032 23.2575 0 43 0C58.5206 0 71.731 9.64333 76.6712 23.1195Z" fill="white"/>
</svg>
